<svg width="101" height="30" viewBox="0 0 101 30" fill="none" xmlns="http://www.w3.org/2000/svg">
<path d="M3.428 27.72C2.972 27.768 2.6 27.624 2.312 27.288C2.168 27.144 2.036 26.988 1.916 26.82C1.796 26.652 1.7 26.472 1.628 26.28C1.508 25.944 1.4 25.608 1.304 25.272C1.208 24.912 1.124 24.564 1.052 24.228C0.98 23.964 0.944 23.712 0.944 23.472C0.92 23.208 0.884 22.956 0.836 22.716C0.812 22.452 0.8 22.188 0.8 21.924C0.8 21.78 0.8 21.636 0.8 21.492C0.8 21.324 0.788 21.168 0.764 21.024C0.74 20.928 0.728 20.844 0.728 20.772C0.728 20.7 0.728 20.616 0.728 20.52C0.728 20.184 0.728 19.848 0.728 19.512C0.728 19.152 0.716 18.804 0.692 18.468C0.692 18.276 0.68 18.108 0.656 17.964C0.632 17.796 0.584 17.628 0.512 17.46C0.416 17.196 0.404 16.908 0.476 16.596C0.476 16.524 0.488 16.476 0.512 16.452C0.56 16.284 0.584 16.116 0.584 15.948C0.608 15.78 0.608 15.612 0.584 15.444C0.56 15.324 0.548 15.204 0.548 15.084C0.548 14.964 0.548 14.856 0.548 14.76C0.524 14.496 0.512 14.232 0.512 13.968C0.536 13.68 0.56 13.404 0.584 13.14C0.608 13.068 0.62 12.996 0.62 12.924C0.62 12.852 0.62 12.78 0.62 12.708C0.596 12.444 0.596 12.192 0.62 11.952C0.668 11.712 0.704 11.472 0.728 11.232C0.776 10.944 0.824 10.668 0.872 10.404C0.92 10.116 0.98 9.828 1.052 9.54C1.1 9.42 1.124 9.288 1.124 9.144C1.124 9 1.124 8.856 1.124 8.712C1.124 8.592 1.112 8.472 1.088 8.352C1.088 8.232 1.088 8.124 1.088 8.028C1.088 7.956 1.088 7.884 1.088 7.812C1.088 7.74 1.1 7.668 1.124 7.596C1.148 7.524 1.16 7.452 1.16 7.38C1.16 7.308 1.172 7.26 1.196 7.236C1.268 7.14 1.328 7.056 1.376 6.984C1.424 6.888 1.496 6.804 1.592 6.732C1.712 6.66 1.82 6.588 1.916 6.516C2.036 6.444 2.144 6.384 2.24 6.336C2.36 6.288 2.456 6.228 2.528 6.156C2.624 6.036 2.72 5.928 2.816 5.832C2.936 5.712 3.032 5.58 3.104 5.436C3.224 5.316 3.344 5.184 3.464 5.04C3.608 4.872 3.764 4.74 3.932 4.644C3.98 4.62 4.052 4.56 4.148 4.464C4.436 4.2 4.772 4.032 5.156 3.96C5.228 3.936 5.288 3.924 5.336 3.924C5.408 3.9 5.48 3.888 5.552 3.888L5.804 3.78C5.996 3.708 6.164 3.744 6.308 3.888C6.356 3.96 6.416 4.032 6.488 4.104C6.584 4.152 6.668 4.2 6.74 4.248C6.932 4.416 7.112 4.596 7.28 4.788C7.472 4.98 7.64 5.196 7.784 5.436C8.024 5.82 8.228 6.204 8.396 6.588C8.588 6.972 8.768 7.368 8.936 7.776L9.584 9.324C9.608 9.468 9.668 9.6 9.764 9.72C9.956 10.08 10.1 10.452 10.196 10.836C10.292 11.196 10.388 11.568 10.484 11.952C10.508 12 10.52 12.048 10.52 12.096C10.544 12.144 10.556 12.192 10.556 12.24C10.604 12.432 10.64 12.636 10.664 12.852C10.712 13.044 10.724 13.236 10.7 13.428C10.724 13.644 10.712 13.86 10.664 14.076C10.64 14.268 10.604 14.46 10.556 14.652C10.484 14.892 10.4 15.12 10.304 15.336C10.208 15.528 10.1 15.732 9.98 15.948C9.932 16.092 9.848 16.224 9.728 16.344C9.608 16.464 9.488 16.572 9.368 16.668C9.176 16.764 8.984 16.908 8.792 17.1C8.744 17.148 8.684 17.184 8.612 17.208C8.564 17.232 8.516 17.268 8.468 17.316C8.3 17.388 8.12 17.472 7.928 17.568C7.736 17.64 7.544 17.712 7.352 17.784C7.328 17.784 7.316 17.808 7.316 17.856C7.316 17.88 7.328 17.904 7.352 17.928L8.324 18.612C8.444 18.684 8.552 18.756 8.648 18.828C8.744 18.876 8.84 18.936 8.936 19.008L9.152 19.116C9.44 19.284 9.728 19.464 10.016 19.656C10.304 19.848 10.58 20.04 10.844 20.232C11.348 20.544 11.852 20.868 12.356 21.204C12.86 21.516 13.34 21.864 13.796 22.248C14.204 22.56 14.564 22.92 14.876 23.328C14.948 23.4 15.02 23.484 15.092 23.58C15.164 23.652 15.248 23.712 15.344 23.76L15.452 23.868C15.836 24.204 16.052 24.66 16.1 25.236C16.1 25.308 16.088 25.38 16.064 25.452C16.064 25.524 16.064 25.596 16.064 25.668C16.064 25.812 16.016 25.932 15.92 26.028C15.824 26.076 15.776 26.136 15.776 26.208C15.704 26.376 15.596 26.496 15.452 26.568C15.332 26.616 15.212 26.688 15.092 26.784C15.044 26.808 14.96 26.82 14.84 26.82C14.696 26.796 14.54 26.772 14.372 26.748C14.228 26.724 14.084 26.712 13.94 26.712C13.748 26.712 13.544 26.628 13.328 26.46C13.184 26.34 13.052 26.232 12.932 26.136C12.812 26.016 12.692 25.872 12.572 25.704C12.26 25.272 11.852 24.876 11.348 24.516C11.108 24.324 10.88 24.144 10.664 23.976C10.448 23.808 10.208 23.652 9.944 23.508C9.776 23.412 9.608 23.316 9.44 23.22C9.296 23.1 9.128 22.992 8.936 22.896C8.336 22.488 7.724 22.092 7.1 21.708C6.476 21.3 5.852 20.892 5.228 20.484C5.132 20.412 5.024 20.34 4.904 20.268C4.784 20.196 4.664 20.124 4.544 20.052C4.496 20.004 4.424 19.956 4.328 19.908C4.232 19.908 4.184 19.944 4.184 20.016C4.184 20.04 4.172 20.064 4.148 20.088C4.148 20.088 4.148 20.1 4.148 20.124C4.148 20.196 4.148 20.268 4.148 20.34C4.148 20.412 4.16 20.484 4.184 20.556C4.208 20.748 4.22 20.94 4.22 21.132C4.22 21.3 4.22 21.48 4.22 21.672C4.22 21.816 4.22 21.96 4.22 22.104C4.244 22.224 4.268 22.356 4.292 22.5C4.292 22.572 4.292 22.656 4.292 22.752C4.316 22.824 4.328 22.896 4.328 22.968C4.304 23.184 4.316 23.4 4.364 23.616C4.412 23.832 4.448 24.048 4.472 24.264L4.688 25.2C4.712 25.296 4.736 25.404 4.76 25.524C4.784 25.62 4.808 25.728 4.832 25.848C4.856 25.944 4.856 26.04 4.832 26.136C4.832 26.208 4.82 26.292 4.796 26.388C4.796 26.412 4.772 26.448 4.724 26.496C4.604 26.52 4.52 26.604 4.472 26.748C4.4 26.916 4.292 27.06 4.148 27.18C4.028 27.324 3.896 27.456 3.752 27.576C3.728 27.6 3.68 27.624 3.608 27.648C3.536 27.672 3.476 27.696 3.428 27.72ZM4.832 15.12H4.904C5.168 15.072 5.432 15.024 5.696 14.976C5.984 14.904 6.26 14.82 6.524 14.724C6.788 14.652 7.016 14.52 7.208 14.328C7.376 14.16 7.46 13.968 7.46 13.752C7.484 13.584 7.484 13.428 7.46 13.284C7.46 13.116 7.436 12.948 7.388 12.78C7.292 12.348 7.184 11.928 7.064 11.52C6.944 11.088 6.8 10.68 6.632 10.296L6.308 9.432C6.236 9.192 6.152 8.964 6.056 8.748C5.96 8.508 5.852 8.28 5.732 8.064C5.708 8.016 5.684 7.968 5.66 7.92C5.636 7.848 5.612 7.788 5.588 7.74L5.444 7.596C5.372 7.5 5.288 7.5 5.192 7.596C5.168 7.596 5.132 7.62 5.084 7.668C4.916 7.884 4.76 8.112 4.616 8.352C4.496 8.592 4.424 8.856 4.4 9.144C4.376 9.24 4.352 9.336 4.328 9.432C4.328 9.528 4.328 9.636 4.328 9.756V11.304C4.304 11.64 4.292 11.988 4.292 12.348C4.316 12.708 4.304 13.056 4.256 13.392C4.232 13.464 4.22 13.536 4.22 13.608C4.244 13.68 4.256 13.752 4.256 13.824C4.28 13.968 4.292 14.112 4.292 14.256C4.292 14.376 4.292 14.508 4.292 14.652C4.292 14.892 4.316 15.036 4.364 15.084C4.436 15.132 4.592 15.144 4.832 15.12ZM32.7804 29.628C32.5644 29.628 32.3724 29.544 32.2044 29.376C32.1564 29.304 32.1084 29.232 32.0604 29.16C32.0124 29.088 31.9644 29.016 31.9164 28.944C31.7004 28.44 31.5924 27.912 31.5924 27.36L31.4844 26.496C31.4124 26.16 31.3524 25.824 31.3044 25.488C31.2564 25.152 31.1724 24.828 31.0524 24.516L30.8364 23.904C30.8364 23.856 30.8244 23.808 30.8004 23.76C30.8004 23.712 30.7884 23.664 30.7644 23.616L30.2244 21.708C30.2004 21.66 30.1764 21.6 30.1524 21.528C30.1524 21.456 30.1284 21.396 30.0804 21.348C30.0084 21.204 29.9484 21.06 29.9004 20.916C29.8764 20.748 29.8404 20.58 29.7924 20.412C29.7684 20.292 29.7444 20.184 29.7204 20.088C29.6964 19.968 29.6604 19.848 29.6124 19.728C29.5644 19.584 29.5164 19.5 29.4684 19.476C29.4204 19.428 29.3124 19.428 29.1444 19.476C29.0244 19.5 28.8924 19.524 28.7484 19.548C28.6284 19.548 28.5084 19.572 28.3884 19.62C28.2924 19.644 28.1724 19.668 28.0284 19.692C27.9084 19.692 27.7884 19.704 27.6684 19.728L27.1644 19.836C27.0444 19.86 26.9124 19.896 26.7684 19.944C26.6484 19.968 26.5284 19.98 26.4084 19.98L25.7604 20.088C25.5684 20.136 25.3644 20.184 25.1484 20.232C24.9324 20.28 24.7284 20.328 24.5364 20.376C23.9604 20.52 23.3844 20.628 22.8084 20.7C22.6164 20.748 22.5084 20.832 22.4844 20.952C22.4604 20.952 22.4484 20.964 22.4484 20.988C22.3044 21.372 22.1364 21.756 21.9444 22.14C21.7764 22.5 21.5964 22.872 21.4044 23.256C21.3564 23.352 21.3084 23.448 21.2604 23.544C21.2364 23.616 21.2004 23.7 21.1524 23.796C21.1284 23.844 21.1044 23.904 21.0804 23.976C21.0564 24.024 21.0324 24.072 21.0084 24.12C20.8644 24.288 20.7924 24.492 20.7924 24.732C20.7684 24.876 20.7204 25.02 20.6484 25.164C20.5764 25.284 20.5044 25.404 20.4324 25.524C20.4084 25.596 20.3604 25.632 20.2884 25.632C20.1924 25.656 20.0964 25.692 20.0004 25.74C19.9044 25.788 19.7964 25.836 19.6764 25.884C19.6044 25.908 19.5324 25.908 19.4604 25.884C19.4124 25.86 19.3524 25.836 19.2804 25.812C19.2324 25.764 19.1844 25.74 19.1364 25.74C18.8724 25.716 18.6804 25.56 18.5604 25.272C18.3684 24.888 18.2364 24.504 18.1644 24.12C18.1404 24.024 18.1404 23.94 18.1644 23.868C18.2124 23.796 18.2484 23.724 18.2724 23.652C18.4164 23.556 18.5004 23.448 18.5244 23.328V23.292C18.5244 22.98 18.5844 22.692 18.7044 22.428C18.8484 22.14 18.9684 21.864 19.0644 21.6C19.1124 21.456 19.1724 21.312 19.2444 21.168C19.3164 21.024 19.3884 20.88 19.4604 20.736C19.5564 20.568 19.6284 20.412 19.6764 20.268C19.7484 20.1 19.8084 19.932 19.8564 19.764C19.9284 19.572 19.9284 19.392 19.8564 19.224C19.8084 19.08 19.7844 18.948 19.7844 18.828C19.7844 18.684 19.7964 18.54 19.8204 18.396C19.8204 18.132 19.9164 17.904 20.1084 17.712C20.2044 17.592 20.3004 17.496 20.3964 17.424C20.5164 17.328 20.6244 17.232 20.7204 17.136C20.9364 16.92 21.1044 16.632 21.2244 16.272C21.3204 15.96 21.3924 15.648 21.4404 15.336C21.5124 15 21.5844 14.676 21.6564 14.364C21.7044 14.052 21.7524 13.752 21.8004 13.464C21.8724 13.152 21.9444 12.852 22.0164 12.564C22.0404 12.444 22.0644 12.336 22.0884 12.24C22.1364 12.12 22.1724 12.012 22.1964 11.916C22.2684 11.724 22.3404 11.544 22.4124 11.376C22.4844 11.184 22.5324 10.992 22.5564 10.8C22.6044 10.704 22.6044 10.62 22.5564 10.548C22.5324 10.428 22.5324 10.32 22.5564 10.224C22.6044 10.128 22.6404 10.032 22.6644 9.936C22.7364 9.768 22.7844 9.6 22.8084 9.432C22.8564 9.264 22.9164 9.096 22.9884 8.928C23.1084 8.616 23.2044 8.364 23.2764 8.172C23.3724 7.956 23.4564 7.716 23.5284 7.452C23.5764 7.308 23.6244 7.176 23.6724 7.056C23.7444 6.912 23.7924 6.768 23.8164 6.624C23.8884 6.408 23.9484 6.192 23.9964 5.976C24.0444 5.736 24.0684 5.508 24.0684 5.292C24.1164 5.1 24.1644 4.968 24.2124 4.896C24.3324 4.656 24.4764 4.452 24.6444 4.284C24.8364 4.116 25.0164 3.948 25.1844 3.78C25.3044 3.708 25.4244 3.66 25.5444 3.636C25.6644 3.588 25.7844 3.6 25.9044 3.672C26.0004 3.72 26.0604 3.744 26.0844 3.744C26.3004 3.72 26.4804 3.768 26.6244 3.888C26.7684 4.008 26.8884 4.152 26.9844 4.32C27.0324 4.368 27.0684 4.428 27.0924 4.5C27.1164 4.572 27.1404 4.632 27.1644 4.68C27.2844 4.872 27.3444 5.064 27.3444 5.256C27.3444 5.352 27.3564 5.46 27.3804 5.58C27.4044 5.676 27.4284 5.784 27.4524 5.904C27.5244 6.048 27.6324 6.12 27.7764 6.12C27.8004 6.096 27.8244 6.096 27.8484 6.12C27.8724 6.144 27.8844 6.168 27.8844 6.192C28.0044 6.336 28.0404 6.492 27.9924 6.66C27.9444 6.852 27.9324 7.044 27.9564 7.236C28.0044 7.404 28.0524 7.584 28.1004 7.776C28.1964 8.016 28.2924 8.256 28.3884 8.496C28.4844 8.736 28.5804 8.976 28.6764 9.216C28.7964 9.48 28.9164 9.744 29.0364 10.008C29.1564 10.272 29.2644 10.536 29.3604 10.8C29.4804 11.136 29.6004 11.472 29.7204 11.808C29.8644 12.144 30.0204 12.48 30.1884 12.816L30.2964 13.212C30.3204 13.308 30.3444 13.404 30.3684 13.5C30.4164 13.596 30.4524 13.692 30.4764 13.788C30.5244 13.86 30.5604 13.932 30.5844 14.004C30.6324 14.076 30.6804 14.136 30.7284 14.184C30.8484 14.352 30.9204 14.532 30.9444 14.724C31.0164 14.964 31.1244 15.18 31.2684 15.372C31.3164 15.444 31.3884 15.48 31.4844 15.48C31.8444 15.432 32.2044 15.396 32.5644 15.372C32.9244 15.324 33.2844 15.252 33.6444 15.156C33.9084 15.084 34.1604 15.048 34.4004 15.048C34.8564 15.048 35.2764 15.204 35.6604 15.516C36.1164 15.876 36.3564 16.332 36.3804 16.884C36.3804 17.004 36.3924 17.1 36.4164 17.172C36.4164 17.34 36.3684 17.472 36.2724 17.568C36.2484 17.64 36.2004 17.712 36.1284 17.784C36.0804 17.856 36.0324 17.928 35.9844 18C35.9364 18.096 35.8884 18.168 35.8404 18.216L35.6244 18.396C35.6004 18.444 35.5644 18.504 35.5164 18.576C35.4684 18.624 35.4084 18.66 35.3364 18.684C35.2404 18.708 35.1444 18.744 35.0484 18.792C34.9524 18.816 34.8444 18.828 34.7244 18.828C34.2924 18.876 33.9084 18.864 33.5724 18.792H32.9964C32.9484 18.792 32.8764 18.816 32.7804 18.864C32.6844 18.912 32.6364 18.972 32.6364 19.044V19.188C32.7084 19.404 32.7564 19.632 32.7804 19.872C32.8284 20.088 32.9004 20.292 32.9964 20.484C32.9964 20.58 33.0204 20.676 33.0684 20.772C33.1884 20.988 33.2844 21.216 33.3564 21.456C33.4284 21.672 33.4884 21.9 33.5364 22.14C33.5364 22.188 33.5604 22.284 33.6084 22.428C33.6804 22.596 33.7404 22.776 33.7884 22.968C33.8364 23.136 33.8724 23.316 33.8964 23.508C33.8964 23.652 33.9324 23.784 34.0044 23.904C34.1004 24.12 34.1724 24.336 34.2204 24.552C34.2684 24.768 34.3044 24.996 34.3284 25.236C34.3524 25.26 34.3644 25.308 34.3644 25.38C34.3644 25.428 34.3764 25.476 34.4004 25.524C34.5204 25.788 34.6044 26.076 34.6524 26.388C34.7004 26.676 34.7604 26.964 34.8324 27.252C34.8804 27.396 34.9044 27.54 34.9044 27.684C34.9284 27.852 34.9404 28.02 34.9404 28.188C34.9404 28.308 34.9044 28.44 34.8324 28.584C34.7604 28.656 34.7244 28.692 34.7244 28.692C34.5804 28.716 34.4964 28.8 34.4724 28.944L34.3644 29.16C34.3164 29.256 34.2444 29.316 34.1484 29.34C34.0524 29.34 33.9684 29.376 33.8964 29.448C33.8004 29.544 33.6684 29.592 33.5004 29.592C33.4044 29.592 33.2844 29.592 33.1404 29.592C33.0204 29.592 32.9004 29.604 32.7804 29.628ZM24.1044 16.56C24.2484 16.536 24.3924 16.512 24.5364 16.488C24.7044 16.464 24.8844 16.44 25.0764 16.416C25.1964 16.392 25.3524 16.368 25.5444 16.344C25.7364 16.32 25.9164 16.296 26.0844 16.272C26.2524 16.224 26.4204 16.2 26.5884 16.2C26.7564 16.176 26.9244 16.152 27.0924 16.128C27.2364 16.08 27.3804 16.056 27.5244 16.056C27.6684 16.032 27.8124 16.008 27.9564 15.984C28.1724 15.936 28.2564 15.816 28.2084 15.624C28.1844 15.432 28.1364 15.24 28.0644 15.048C28.0164 14.832 27.9084 14.652 27.7404 14.508C27.6924 14.46 27.6684 14.388 27.6684 14.292V14.184C27.6204 13.992 27.5604 13.812 27.4884 13.644C27.4404 13.452 27.3804 13.272 27.3084 13.104C27.2604 12.912 27.2004 12.744 27.1284 12.6C27.0804 12.432 27.0204 12.264 26.9484 12.096L26.5164 10.8C26.4444 10.632 26.3724 10.464 26.3004 10.296C26.2524 10.128 26.2044 9.96 26.1564 9.792L26.0484 9.648H25.9404L25.8684 9.756C25.7484 10.116 25.6044 10.476 25.4364 10.836C25.2924 11.196 25.1604 11.58 25.0404 11.988C25.0404 12.036 25.0284 12.096 25.0044 12.168C24.9804 12.24 24.9564 12.312 24.9324 12.384C24.8364 12.624 24.7404 12.888 24.6444 13.176C24.5724 13.464 24.5124 13.752 24.4644 14.04C24.4404 14.208 24.4164 14.376 24.3924 14.544C24.3684 14.688 24.3324 14.844 24.2844 15.012L23.9604 16.416C23.9364 16.44 23.9484 16.476 23.9964 16.524C24.0444 16.548 24.0804 16.56 24.1044 16.56ZM44.893 29.376C44.821 29.4 44.749 29.4 44.677 29.376C44.605 29.376 44.545 29.376 44.497 29.376C44.233 29.304 44.005 29.16 43.813 28.944C43.645 28.752 43.489 28.524 43.345 28.26C43.321 28.164 43.285 28.068 43.237 27.972C43.213 27.876 43.201 27.78 43.201 27.684V27.432C43.153 27.168 43.117 26.904 43.093 26.64C43.093 26.376 43.093 26.112 43.093 25.848C43.093 25.512 43.093 25.176 43.093 24.84C43.117 24.504 43.129 24.168 43.129 23.832C43.129 23.664 43.141 23.532 43.165 23.436C43.189 22.98 43.189 22.5 43.165 21.996C43.141 21.876 43.117 21.744 43.093 21.6C43.093 21.456 43.093 21.312 43.093 21.168C43.117 20.904 43.117 20.64 43.093 20.376C43.069 20.112 43.033 19.848 42.985 19.584L42.877 18.972C42.877 18.924 42.865 18.876 42.841 18.828C42.841 18.756 42.841 18.708 42.841 18.684C42.649 17.964 42.385 17.316 42.049 16.74C41.929 16.524 41.797 16.308 41.653 16.092C41.533 15.852 41.413 15.612 41.293 15.372C41.173 15.132 41.077 14.892 41.005 14.652C40.957 14.388 40.909 14.136 40.861 13.896C40.861 13.848 40.861 13.788 40.861 13.716C40.885 13.644 40.897 13.572 40.897 13.5C40.897 13.356 40.897 13.212 40.897 13.068C40.921 12.9 40.933 12.732 40.933 12.564C40.933 12.396 40.885 12.264 40.789 12.168L40.573 11.88C40.477 11.76 40.393 11.64 40.321 11.52C40.249 11.376 40.165 11.244 40.069 11.124L39.673 10.584C39.577 10.44 39.469 10.296 39.349 10.152C39.229 10.008 39.109 9.852 38.989 9.684C38.941 9.636 38.893 9.588 38.845 9.54C38.797 9.468 38.737 9.42 38.665 9.396C38.569 9.372 38.497 9.312 38.449 9.216C38.377 9.144 38.293 9.036 38.197 8.892C38.053 8.652 37.897 8.412 37.729 8.172C37.585 7.908 37.441 7.656 37.297 7.416L37.189 7.272C36.973 6.816 36.757 6.36 36.541 5.904C36.349 5.424 36.169 4.956 36.001 4.5C35.905 4.284 35.833 4.044 35.785 3.78C35.761 3.636 35.725 3.492 35.677 3.348C35.629 3.204 35.569 3.072 35.497 2.952C35.425 2.832 35.377 2.712 35.353 2.592C35.353 2.472 35.353 2.352 35.353 2.232C35.353 2.16 35.365 2.088 35.389 2.016C35.437 1.944 35.473 1.872 35.497 1.8C35.569 1.68 35.641 1.572 35.713 1.476C35.809 1.356 35.905 1.248 36.001 1.152C36.121 1.032 36.253 0.971998 36.397 0.971998C36.469 0.971998 36.517 0.959998 36.541 0.935999C36.733 0.839998 36.925 0.815999 37.117 0.864C37.333 0.911999 37.525 0.971999 37.693 1.044C37.765 1.068 37.825 1.116 37.873 1.188C37.921 1.236 37.969 1.284 38.017 1.332L38.413 1.98C38.461 2.028 38.485 2.088 38.485 2.16C38.509 2.232 38.533 2.304 38.557 2.376C38.581 2.424 38.605 2.484 38.629 2.556C38.797 2.916 38.953 3.276 39.097 3.636C39.265 3.972 39.421 4.32 39.565 4.68C39.685 4.992 39.805 5.304 39.925 5.616C40.069 5.904 40.225 6.192 40.393 6.48C40.513 6.768 40.657 7.044 40.825 7.308C40.993 7.572 41.161 7.836 41.329 8.1C41.425 8.196 41.509 8.304 41.581 8.424C41.653 8.544 41.737 8.664 41.833 8.784L42.013 9C42.205 9.192 42.325 9.288 42.373 9.288C42.421 9.288 42.529 9.18 42.697 8.964C42.793 8.844 42.877 8.724 42.949 8.604C43.045 8.46 43.141 8.34 43.237 8.244C43.429 8.004 43.609 7.776 43.777 7.56C43.969 7.344 44.149 7.128 44.317 6.912C44.581 6.6 44.917 6.288 45.325 5.976C45.493 5.832 45.649 5.676 45.793 5.508C45.961 5.292 46.153 5.136 46.369 5.04C46.537 4.944 46.693 4.848 46.837 4.752C46.981 4.632 47.125 4.524 47.269 4.428C47.413 4.284 47.569 4.164 47.737 4.068C47.833 3.996 47.917 3.924 47.989 3.852C48.085 3.756 48.169 3.66 48.241 3.564C48.289 3.492 48.337 3.432 48.385 3.384C48.457 3.312 48.529 3.252 48.601 3.204L49.105 2.88C49.153 2.856 49.189 2.844 49.213 2.844C49.237 2.82 49.261 2.796 49.285 2.772C49.333 2.772 49.369 2.772 49.393 2.772C49.417 2.748 49.441 2.736 49.465 2.736C49.585 2.688 49.693 2.652 49.789 2.628C49.909 2.604 50.029 2.592 50.149 2.592C50.293 2.664 50.437 2.736 50.581 2.808C50.725 2.88 50.845 2.976 50.941 3.096C50.989 3.12 51.025 3.132 51.049 3.132C51.097 3.132 51.133 3.144 51.157 3.168C51.181 3.192 51.193 3.216 51.193 3.24C51.193 3.264 51.181 3.312 51.157 3.384C51.133 3.432 51.121 3.468 51.121 3.492C51.121 3.516 51.145 3.528 51.193 3.528C51.241 3.528 51.277 3.54 51.301 3.564C51.325 3.588 51.349 3.6 51.373 3.6C51.397 3.6 51.409 3.624 51.409 3.672C51.385 3.864 51.409 4.068 51.481 4.284C51.529 4.356 51.553 4.428 51.553 4.5C51.553 4.572 51.541 4.644 51.517 4.716L51.049 5.58C51.025 5.676 50.965 5.748 50.869 5.796C50.509 6.108 50.149 6.348 49.789 6.516C49.357 6.66 48.997 6.852 48.709 7.092C48.589 7.188 48.469 7.284 48.349 7.38C48.229 7.452 48.109 7.548 47.989 7.668C47.941 7.716 47.869 7.764 47.773 7.812L47.557 7.992C47.293 8.28 47.029 8.568 46.765 8.856C46.525 9.12 46.273 9.396 46.009 9.684C45.961 9.78 45.901 9.828 45.829 9.828C45.709 9.9 45.601 9.996 45.505 10.116C45.385 10.308 45.253 10.5 45.109 10.692C44.965 10.86 44.857 11.064 44.785 11.304L44.569 11.664C44.545 11.688 44.521 11.724 44.497 11.772C44.473 11.796 44.449 11.832 44.425 11.88C44.329 12.048 44.317 12.228 44.389 12.42C44.437 12.468 44.473 12.528 44.497 12.6C44.545 12.672 44.581 12.744 44.605 12.816C44.677 12.936 44.665 13.056 44.569 13.176C44.521 13.2 44.497 13.26 44.497 13.356C44.545 13.452 44.569 13.524 44.569 13.572C44.617 13.716 44.605 13.848 44.533 13.968C44.485 14.064 44.461 14.124 44.461 14.148C44.437 14.292 44.449 14.424 44.497 14.544C44.545 14.64 44.593 14.76 44.641 14.904C44.713 15.024 44.797 15.144 44.893 15.264C45.013 15.504 45.133 15.732 45.253 15.948C45.373 16.164 45.481 16.392 45.577 16.632L46.009 18.036C46.057 18.252 46.093 18.48 46.117 18.72C46.141 18.936 46.165 19.152 46.189 19.368C46.213 19.512 46.237 19.656 46.261 19.8C46.285 19.92 46.285 20.052 46.261 20.196C46.309 20.724 46.321 21.252 46.297 21.78C46.297 22.284 46.297 22.8 46.297 23.328C46.297 23.376 46.285 23.424 46.261 23.472C46.237 23.736 46.225 24.012 46.225 24.3C46.225 24.588 46.213 24.864 46.189 25.128C46.189 25.296 46.189 25.464 46.189 25.632C46.213 25.8 46.225 25.98 46.225 26.172C46.225 26.244 46.237 26.292 46.261 26.316C46.309 26.436 46.345 26.568 46.369 26.712C46.393 26.832 46.417 26.952 46.441 27.072C46.465 27.168 46.477 27.252 46.477 27.324C46.477 27.42 46.453 27.516 46.405 27.612C46.333 27.78 46.333 27.96 46.405 28.152C46.405 28.176 46.369 28.212 46.297 28.26C46.249 28.26 46.201 28.272 46.153 28.296C46.129 28.296 46.093 28.32 46.045 28.368C46.045 28.416 46.033 28.452 46.009 28.476C45.985 28.596 45.889 28.74 45.721 28.908C45.625 29.028 45.493 29.124 45.325 29.196C45.181 29.268 45.037 29.328 44.893 29.376ZM56.1733 27.108C55.9813 27.18 55.7653 27.156 55.5253 27.036L54.8053 26.712C54.6853 26.664 54.5893 26.556 54.5173 26.388L54.4093 26.172C54.3613 26.052 54.3013 25.968 54.2293 25.92C54.1093 25.824 54.0253 25.656 53.9773 25.416C53.9293 25.176 53.8933 24.936 53.8693 24.696C53.8453 24.456 53.8213 24.216 53.7973 23.976C53.7733 23.784 53.7613 23.592 53.7613 23.4C53.7613 23.208 53.7613 23.028 53.7613 22.86L53.7973 22.608C53.8453 22.488 53.8693 22.368 53.8693 22.248C53.8693 22.128 53.8693 22.02 53.8693 21.924V15.372C53.9173 15.036 53.9413 14.7 53.9413 14.364C53.9413 14.004 53.9413 13.656 53.9413 13.32C53.9653 12.984 53.9773 12.66 53.9773 12.348C53.9773 12.012 53.9533 11.688 53.9053 11.376C53.8813 11.256 53.8693 11.124 53.8693 10.98C53.8693 10.836 53.8693 10.692 53.8693 10.548C53.8693 10.332 53.8693 10.116 53.8693 9.9C53.8693 9.684 53.8453 9.468 53.7973 9.252V9.144C53.7973 8.808 53.7733 8.484 53.7253 8.172C53.7013 7.836 53.6773 7.512 53.6533 7.2C53.6293 7.008 53.6053 6.828 53.5813 6.66C53.5573 6.492 53.5213 6.324 53.4733 6.156C53.4493 6.06 53.4373 5.964 53.4373 5.868C53.4373 5.772 53.4373 5.676 53.4373 5.58C53.4373 5.412 53.4613 5.256 53.5093 5.112C53.5573 4.944 53.6053 4.788 53.6533 4.644C53.6773 4.596 53.7373 4.524 53.8333 4.428C53.8813 4.38 53.9293 4.344 53.9773 4.32C54.0253 4.296 54.0613 4.272 54.0853 4.248C54.2293 4.056 54.4213 3.972 54.6613 3.996C54.7093 4.02 54.7813 4.008 54.8773 3.96C54.9973 3.864 55.1053 3.852 55.2013 3.924C55.2733 3.972 55.3933 3.972 55.5613 3.924C55.6333 3.924 55.6933 3.948 55.7413 3.996C55.8133 4.092 55.9093 4.164 56.0293 4.212C56.1493 4.26 56.2333 4.332 56.2813 4.428C56.3533 4.5 56.4253 4.572 56.4973 4.644C56.5453 4.716 56.5933 4.788 56.6413 4.86C56.7133 4.908 56.7493 4.98 56.7493 5.076C56.7733 5.172 56.7733 5.268 56.7493 5.364C56.7493 5.436 56.7493 5.52 56.7493 5.616C56.7493 5.832 56.7613 6.06 56.7853 6.3C56.8333 6.516 56.8693 6.732 56.8933 6.948C56.9413 7.188 56.9773 7.44 57.0013 7.704C57.0253 7.944 57.0493 8.196 57.0733 8.46V8.82C57.1213 8.988 57.1453 9.156 57.1453 9.324C57.1453 9.492 57.1573 9.66 57.1813 9.828V9.864C57.2053 10.152 57.2293 10.44 57.2533 10.728C57.2773 11.016 57.3013 11.304 57.3253 11.592C57.3493 11.712 57.3613 11.844 57.3613 11.988C57.3613 12.108 57.3613 12.228 57.3613 12.348V21.924C57.3613 22.14 57.3733 22.356 57.3973 22.572C57.4453 22.788 57.4813 22.992 57.5053 23.184C57.5053 23.304 57.5773 23.364 57.7213 23.364C57.9373 23.412 58.1413 23.412 58.3333 23.364C58.5973 23.316 58.8493 23.292 59.0893 23.292C59.3533 23.292 59.6173 23.292 59.8813 23.292C60.1453 23.292 60.3973 23.292 60.6373 23.292C60.9013 23.268 61.1533 23.244 61.3933 23.22H61.7893C61.9813 23.244 62.1493 23.268 62.2933 23.292C62.4613 23.292 62.6293 23.292 62.7973 23.292C63.0613 23.292 63.3253 23.304 63.5893 23.328C63.8773 23.328 64.1533 23.34 64.4173 23.364C64.6093 23.388 64.8013 23.4 64.9933 23.4C65.2093 23.4 65.4253 23.4 65.6413 23.4H65.8213C66.3013 23.376 66.7333 23.496 67.1173 23.76C67.2853 23.832 67.4053 23.952 67.4773 24.12C67.5253 24.216 67.5613 24.312 67.5853 24.408C67.6333 24.48 67.6693 24.576 67.6933 24.696C67.7173 24.792 67.7293 24.888 67.7293 24.984C67.7533 25.056 67.7773 25.14 67.8013 25.236C67.8733 25.452 67.8493 25.692 67.7293 25.956C67.7053 26.028 67.6813 26.1 67.6573 26.172C67.6333 26.244 67.5973 26.316 67.5493 26.388C67.5013 26.46 67.4413 26.52 67.3693 26.568C67.3693 26.568 67.3213 26.592 67.2253 26.64C67.0333 26.808 66.8173 26.916 66.5773 26.964C66.3613 27.012 66.1213 27.06 65.8573 27.108L65.4973 27.072C65.1373 26.952 64.7773 26.88 64.4173 26.856C64.3213 26.832 64.2133 26.82 64.0933 26.82C63.9733 26.796 63.8533 26.784 63.7333 26.784C63.5653 26.784 63.3973 26.784 63.2293 26.784C63.0613 26.76 62.8813 26.736 62.6893 26.712L62.3293 26.676C62.1133 26.7 61.8973 26.712 61.6813 26.712C61.4653 26.688 61.2493 26.688 61.0333 26.712C60.9373 26.712 60.8413 26.712 60.7453 26.712C60.6493 26.688 60.5533 26.676 60.4573 26.676C60.2653 26.676 60.0733 26.676 59.8813 26.676C59.7133 26.676 59.5333 26.7 59.3413 26.748C59.2453 26.772 59.1253 26.796 58.9813 26.82C58.8613 26.82 58.7413 26.82 58.6213 26.82C58.2613 26.844 57.9013 26.88 57.5413 26.928C57.1813 26.952 56.8333 27 56.4973 27.072C56.4253 27.096 56.3173 27.108 56.1733 27.108ZM75.1096 27.36C75.0856 27.336 75.0496 27.324 75.0016 27.324C74.7616 27.18 74.5216 27.048 74.2816 26.928C74.0656 26.784 73.8616 26.628 73.6696 26.46C73.5736 26.412 73.5136 26.364 73.4896 26.316C73.2736 26.196 73.0816 26.052 72.9136 25.884C72.7456 25.692 72.5896 25.488 72.4456 25.272C72.3976 25.224 72.3496 25.164 72.3016 25.092C72.2536 25.02 72.1936 24.948 72.1216 24.876C71.8816 24.636 71.6896 24.348 71.5456 24.012C71.5216 23.94 71.4856 23.868 71.4376 23.796C71.3896 23.724 71.3416 23.652 71.2936 23.58C71.1496 23.388 71.0416 23.208 70.9696 23.04C70.9216 22.848 70.8496 22.668 70.7536 22.5C70.6576 22.308 70.5616 22.128 70.4656 21.96C70.4416 21.864 70.4056 21.768 70.3576 21.672C70.3096 21.576 70.2736 21.48 70.2496 21.384C70.2496 21.264 70.2136 21.132 70.1416 20.988C70.0456 20.724 69.9496 20.46 69.8536 20.196C69.7816 19.908 69.7096 19.62 69.6376 19.332C69.5896 19.236 69.5656 19.164 69.5656 19.116C69.4216 18.804 69.3136 18.48 69.2416 18.144C69.1696 17.808 69.0976 17.484 69.0256 17.172L68.8096 15.552C68.7856 15.504 68.7736 15.444 68.7736 15.372C68.7736 15.3 68.7736 15.24 68.7736 15.192C68.7736 15.048 68.7736 14.916 68.7736 14.796C68.7736 14.652 68.7496 14.508 68.7016 14.364C68.6536 14.052 68.6656 13.764 68.7376 13.5C68.7376 13.404 68.7376 13.32 68.7376 13.248C68.7616 13.152 68.7736 13.056 68.7736 12.96C68.7736 12.84 68.7736 12.72 68.7736 12.6C68.7976 12.456 68.8216 12.336 68.8456 12.24C68.8696 12.168 68.8816 12.072 68.8816 11.952C68.9296 11.736 68.9536 11.532 68.9536 11.34C68.9776 11.124 69.0016 10.92 69.0256 10.728C69.0976 10.392 69.1336 10.068 69.1336 9.756C69.1336 9.66 69.1336 9.576 69.1336 9.504C69.1576 9.408 69.1816 9.312 69.2056 9.216C69.2056 9 69.1936 8.844 69.1696 8.748C69.0976 8.652 69.0856 8.52 69.1336 8.352C69.1816 8.256 69.2056 8.184 69.2056 8.136C69.2296 8.088 69.2416 8.04 69.2416 7.992C69.2416 7.92 69.2776 7.872 69.3496 7.848H69.6016C69.6976 7.848 69.7576 7.812 69.7816 7.74C69.8056 7.644 69.8896 7.572 70.0336 7.524C70.1536 7.476 70.2616 7.44 70.3576 7.416C70.4536 7.368 70.5496 7.308 70.6456 7.236C70.7176 7.188 70.8016 7.164 70.8976 7.164C70.9936 7.164 71.0896 7.176 71.1856 7.2L71.8336 7.416C71.8576 7.44 71.8696 7.452 71.8696 7.452C71.8936 7.452 71.9176 7.464 71.9416 7.488C72.1336 7.68 72.2896 7.896 72.4096 8.136C72.5536 8.376 72.6376 8.64 72.6616 8.928C72.6616 9.024 72.6616 9.12 72.6616 9.216C72.6616 9.288 72.6376 9.372 72.5896 9.468C72.5656 9.612 72.5416 9.756 72.5176 9.9C72.4936 10.044 72.4696 10.2 72.4456 10.368C72.3976 10.608 72.3616 10.848 72.3376 11.088C72.3376 11.304 72.3376 11.532 72.3376 11.772C72.3136 11.868 72.3016 11.964 72.3016 12.06C72.3016 12.132 72.2896 12.216 72.2656 12.312C72.2416 12.6 72.2296 12.888 72.2296 13.176C72.2296 13.464 72.2536 13.74 72.3016 14.004C72.3016 14.028 72.3016 14.064 72.3016 14.112C72.3256 14.16 72.3256 14.208 72.3016 14.256C72.3016 14.496 72.3256 14.748 72.3736 15.012C72.4216 15.276 72.4576 15.54 72.4816 15.804C72.5056 16.044 72.5296 16.272 72.5536 16.488C72.5776 16.704 72.6136 16.92 72.6616 17.136C72.7096 17.232 72.7336 17.328 72.7336 17.424C72.7576 17.52 72.7816 17.616 72.8056 17.712C72.9016 18.168 73.0096 18.612 73.1296 19.044C73.2496 19.476 73.4056 19.908 73.5976 20.34C73.7176 20.604 73.8376 20.832 73.9576 21.024C74.1496 21.36 74.3176 21.696 74.4616 22.032C74.5576 22.2 74.6536 22.368 74.7496 22.536C74.8456 22.68 74.9416 22.836 75.0376 23.004C75.1336 23.124 75.2296 23.232 75.3256 23.328C75.4216 23.424 75.5176 23.532 75.6136 23.652C75.7336 23.772 75.8896 23.808 76.0816 23.76C76.2016 23.712 76.2856 23.664 76.3336 23.616C76.4536 23.544 76.5616 23.472 76.6576 23.4C76.7776 23.328 76.8856 23.244 76.9816 23.148C77.2456 22.884 77.4856 22.62 77.7016 22.356C77.9416 22.092 78.1456 21.804 78.3136 21.492C78.4576 21.228 78.6016 20.952 78.7456 20.664C78.8896 20.376 79.0216 20.088 79.1416 19.8C79.2856 19.464 79.4176 19.128 79.5376 18.792C79.6816 18.456 79.8136 18.108 79.9336 17.748C80.0296 17.508 80.1016 17.268 80.1496 17.028C80.2216 16.764 80.2696 16.512 80.2936 16.272C80.3416 16.008 80.3776 15.744 80.4016 15.48C80.4496 15.192 80.4616 14.916 80.4376 14.652C80.4376 14.58 80.4376 14.508 80.4376 14.436C80.4616 14.364 80.4736 14.292 80.4736 14.22C80.5216 14.052 80.5336 13.896 80.5096 13.752C80.5096 13.608 80.4976 13.464 80.4736 13.32C80.4496 12.912 80.4136 12.528 80.3656 12.168C80.3416 11.784 80.3176 11.4 80.2936 11.016C80.2936 10.824 80.2816 10.692 80.2576 10.62C80.2336 10.404 80.2096 10.188 80.1856 9.972C80.1856 9.756 80.1616 9.54 80.1136 9.324V9.036C80.1136 8.796 80.1016 8.568 80.0776 8.352C80.0776 8.112 80.0776 7.872 80.0776 7.632C80.0776 7.44 80.0656 7.272 80.0416 7.128C80.0416 6.96 80.0416 6.792 80.0416 6.624C80.0416 6.408 80.0776 6.228 80.1496 6.084C80.2216 5.964 80.2456 5.868 80.2216 5.796C80.1496 5.652 80.1856 5.544 80.3296 5.472C80.4496 5.352 80.5696 5.256 80.6896 5.184C80.8336 5.112 80.9896 5.064 81.1576 5.04C81.2056 5.016 81.2416 5.004 81.2656 5.004C81.3136 5.004 81.3496 4.992 81.3736 4.968C81.5176 4.848 81.7096 4.812 81.9496 4.86C81.9976 4.884 82.0696 4.896 82.1656 4.896C82.3816 4.944 82.5376 5.028 82.6336 5.148C82.7056 5.22 82.8136 5.304 82.9576 5.4C83.1496 5.496 83.2816 5.616 83.3536 5.76C83.4256 5.904 83.4736 6.06 83.4976 6.228C83.5456 6.468 83.5816 6.696 83.6056 6.912C83.6536 7.128 83.6656 7.356 83.6416 7.596V7.92C83.6416 8.16 83.6416 8.4 83.6416 8.64C83.6656 8.856 83.6896 9.084 83.7136 9.324C83.7376 9.396 83.7496 9.48 83.7496 9.576C83.7496 9.648 83.7496 9.72 83.7496 9.792C83.7496 9.936 83.7496 10.08 83.7496 10.224C83.7736 10.344 83.7976 10.476 83.8216 10.62C83.8456 10.668 83.8576 10.74 83.8576 10.836C83.8336 11.076 83.8336 11.316 83.8576 11.556C83.9056 11.772 83.9416 12 83.9656 12.24C83.9896 12.48 84.0016 12.732 84.0016 12.996C84.0256 13.26 84.0376 13.524 84.0376 13.788C84.0616 13.812 84.0616 13.848 84.0376 13.896C84.0376 13.944 84.0376 13.992 84.0376 14.04C83.9656 14.256 83.9536 14.508 84.0016 14.796C84.0496 15.108 84.0376 15.408 83.9656 15.696C83.9416 15.912 83.9176 16.128 83.8936 16.344C83.8696 16.56 83.8336 16.788 83.7856 17.028C83.7376 17.412 83.6536 17.796 83.5336 18.18C83.4136 18.564 83.2936 18.948 83.1736 19.332C83.1736 19.38 83.1376 19.464 83.0656 19.584C82.9696 19.752 82.8856 19.932 82.8136 20.124C82.7416 20.292 82.6816 20.472 82.6336 20.664L82.5256 20.916C82.4056 21.156 82.2976 21.396 82.2016 21.636C82.1296 21.852 82.0336 22.08 81.9136 22.32C81.8416 22.464 81.7696 22.608 81.6976 22.752C81.6256 22.896 81.5416 23.028 81.4456 23.148C81.4216 23.196 81.3856 23.244 81.3376 23.292C81.2896 23.46 81.2176 23.616 81.1216 23.76C81.0256 23.904 80.9296 24.048 80.8336 24.192C80.5696 24.6 80.2576 24.984 79.8976 25.344C79.5616 25.704 79.1896 26.04 78.7816 26.352L78.3496 26.604C78.0136 26.772 77.6536 26.916 77.2696 27.036C76.9096 27.156 76.5376 27.24 76.1536 27.288C76.0336 27.312 75.9016 27.312 75.7576 27.288C75.6856 27.288 75.6136 27.288 75.5416 27.288C75.4696 27.288 75.3976 27.312 75.3256 27.36H75.1096ZM92.4841 28.764L91.8721 28.656C91.5601 28.608 91.2361 28.56 90.9001 28.512C90.5881 28.464 90.2641 28.428 89.9281 28.404C89.5921 28.404 89.2561 28.308 88.9201 28.116C88.6081 27.948 88.3921 27.684 88.2721 27.324C88.2481 27.204 88.2121 27.084 88.1641 26.964C88.1401 26.844 88.1161 26.724 88.0921 26.604C88.0921 26.316 88.1521 26.1 88.2721 25.956C88.3921 25.836 88.4881 25.716 88.5601 25.596C88.6561 25.476 88.7521 25.368 88.8481 25.272C88.8961 25.224 88.9441 25.188 88.9921 25.164C89.0401 25.14 89.0881 25.116 89.1361 25.092C89.2561 25.02 89.3761 24.972 89.4961 24.948C89.6161 24.9 89.7361 24.864 89.8561 24.84C89.9041 24.816 89.9401 24.816 89.9641 24.84C90.0121 24.84 90.0481 24.84 90.0721 24.84C90.1921 24.864 90.3241 24.888 90.4681 24.912C90.6121 24.912 90.7441 24.936 90.8641 24.984L92.3761 25.2C92.7121 25.248 93.0121 25.2 93.2761 25.056C93.3721 25.008 93.4561 24.96 93.5281 24.912C93.6241 24.864 93.7081 24.816 93.7801 24.768C94.3081 24.456 94.7641 24.132 95.1481 23.796C95.4361 23.532 95.7121 23.268 95.9761 23.004C96.2401 22.74 96.4801 22.452 96.6961 22.14C96.8641 21.924 96.9721 21.708 97.0201 21.492C97.0681 21.252 97.0801 21.012 97.0561 20.772L96.9481 20.484C96.9241 20.364 96.8761 20.268 96.8041 20.196C96.7321 20.124 96.6601 20.04 96.5881 19.944C96.4441 19.824 96.3001 19.692 96.1561 19.548C96.0361 19.404 95.9041 19.284 95.7601 19.188C95.4001 18.9 95.0401 18.624 94.6801 18.36C94.3441 18.096 93.9961 17.832 93.6361 17.568C93.6121 17.52 93.5401 17.472 93.4201 17.424C93.2041 17.28 92.9881 17.124 92.7721 16.956C92.5801 16.764 92.3881 16.584 92.1961 16.416C91.9561 16.176 91.6921 15.948 91.4041 15.732C91.2601 15.66 91.1281 15.54 91.0081 15.372C90.9121 15.252 90.7681 15.132 90.5761 15.012C90.4081 14.916 90.2521 14.808 90.1081 14.688C89.9641 14.544 89.8201 14.412 89.6761 14.292L89.2081 13.86C89.1121 13.74 89.0041 13.632 88.8841 13.536C88.7881 13.416 88.6801 13.296 88.5601 13.176C88.5121 13.056 88.4401 12.96 88.3441 12.888C88.2721 12.816 88.2001 12.732 88.1281 12.636C88.1041 12.588 88.0681 12.54 88.0201 12.492C87.9721 12.42 87.9361 12.348 87.9121 12.276C87.7681 11.988 87.6121 11.7 87.4441 11.412C87.3001 11.124 87.1681 10.824 87.0481 10.512C86.9761 10.32 86.9041 10.14 86.8321 9.972C86.7841 9.78 86.7361 9.6 86.6881 9.432C86.6641 9.24 86.6161 9.072 86.5441 8.928C86.4961 8.76 86.4481 8.592 86.4001 8.424C86.3521 8.16 86.2921 7.908 86.2201 7.668C86.1721 7.404 86.1241 7.152 86.0761 6.912L86.0041 6.624C85.9801 6.36 85.9801 6.108 86.0041 5.868C86.0521 5.532 86.1241 5.232 86.2201 4.968C86.3161 4.68 86.4721 4.452 86.6881 4.284C86.9281 4.092 87.1681 3.9 87.4081 3.708C87.6481 3.516 87.9001 3.36 88.1641 3.24C88.2121 3.24 88.2481 3.228 88.2721 3.204C88.5121 3.012 88.7761 2.88 89.0641 2.808C89.3521 2.712 89.6401 2.628 89.9281 2.556C91.0801 2.22 92.2681 1.968 93.4921 1.8H93.8521C94.0921 1.8 94.3201 1.8 94.5361 1.8C94.7521 1.8 94.9801 1.788 95.2201 1.764C95.5081 1.764 95.7961 1.8 96.0841 1.872C96.3721 1.92 96.6481 2.004 96.9121 2.124C97.1041 2.22 97.2961 2.328 97.4881 2.448C97.6801 2.544 97.8601 2.652 98.0281 2.772C98.2201 2.916 98.3401 3.072 98.3881 3.24L98.4961 3.492C98.6161 3.708 98.6761 3.936 98.6761 4.176C98.7001 4.392 98.6881 4.62 98.6401 4.86C98.6401 4.932 98.6281 5.016 98.6041 5.112C98.6041 5.184 98.6041 5.256 98.6041 5.328C98.5321 5.856 98.2801 6.264 97.8481 6.552C97.5841 6.792 97.2361 6.888 96.8041 6.84C96.7081 6.792 96.6601 6.816 96.6601 6.912C96.6601 7.008 96.6001 7.056 96.4801 7.056H96.2641C96.1201 7.056 95.9761 6.984 95.8321 6.84C95.7121 6.72 95.6521 6.624 95.6521 6.552C95.6521 6.456 95.7001 6.384 95.7961 6.336C95.7481 6.216 95.7001 6.108 95.6521 6.012C95.6041 5.916 95.5561 5.844 95.5081 5.796C95.4361 5.676 95.3281 5.592 95.1841 5.544C95.0641 5.52 94.9441 5.496 94.8241 5.472C94.7041 5.448 94.5841 5.424 94.4641 5.4C94.3681 5.4 94.2601 5.4 94.1401 5.4C94.0201 5.376 93.9001 5.352 93.7801 5.328C93.7081 5.304 93.6001 5.316 93.4561 5.364C93.3841 5.388 93.3121 5.412 93.2401 5.436C93.1681 5.436 93.0841 5.424 92.9881 5.4C92.9161 5.4 92.8321 5.4 92.7361 5.4C92.6641 5.4 92.5801 5.424 92.4841 5.472L91.8001 5.58C91.4161 5.652 91.0441 5.796 90.6841 6.012C90.6121 6.036 90.5401 6.06 90.4681 6.084C90.3961 6.108 90.3241 6.108 90.2521 6.084C90.1081 6.06 89.9881 6.096 89.8921 6.192C89.8681 6.24 89.8081 6.276 89.7121 6.3C89.6401 6.3 89.5801 6.324 89.5321 6.372C89.4361 6.468 89.3881 6.564 89.3881 6.66C89.4121 6.708 89.4241 6.78 89.4241 6.876L90.1801 9.072C90.3241 9.456 90.5041 9.816 90.7201 10.152C90.9601 10.464 91.2121 10.776 91.4761 11.088C91.8841 11.568 92.3041 11.976 92.7361 12.312L93.8881 13.284C94.1281 13.5 94.3801 13.704 94.6441 13.896C94.9081 14.088 95.1601 14.28 95.4001 14.472C95.7601 14.736 96.1201 15.012 96.4801 15.3C96.8401 15.564 97.2001 15.84 97.5601 16.128C97.8481 16.368 98.1241 16.608 98.3881 16.848C98.6761 17.064 98.9401 17.304 99.1801 17.568C99.3481 17.76 99.5161 17.952 99.6841 18.144C99.8521 18.336 99.9961 18.552 100.116 18.792C100.284 19.056 100.428 19.368 100.548 19.728C100.692 20.184 100.752 20.616 100.728 21.024C100.704 21.072 100.692 21.144 100.692 21.24C100.692 21.528 100.656 21.804 100.584 22.068C100.536 22.308 100.452 22.56 100.332 22.824C100.212 23.064 100.08 23.316 99.9361 23.58C99.8161 23.82 99.6721 24.06 99.5041 24.3C99.2641 24.612 99.0121 24.912 98.7481 25.2C98.5081 25.464 98.2321 25.728 97.9201 25.992C97.7521 26.136 97.5841 26.292 97.4161 26.46C97.2481 26.604 97.0681 26.736 96.8761 26.856C96.7561 26.952 96.6361 27.036 96.5161 27.108C96.3961 27.204 96.2761 27.3 96.1561 27.396C96.0601 27.444 95.9641 27.504 95.8681 27.576C95.7721 27.648 95.6761 27.72 95.5801 27.792C95.4841 27.888 95.3641 27.96 95.2201 28.008C95.1001 28.08 94.9801 28.14 94.8601 28.188L93.8161 28.62C93.6001 28.692 93.3841 28.74 93.1681 28.764C92.9521 28.788 92.7241 28.788 92.4841 28.764Z" fill="#252209"/>
</svg>
